<?xml version="1.0" encoding="UTF-8" standalone="no"?>
<svg width="18px" height="18px" viewBox="0 0 18 18" version="1.1" xmlns="http://www.w3.org/2000/svg" xmlns:xlink="http://www.w3.org/1999/xlink">
    <g id="Page-1" stroke="none" stroke-width="1" fill="none" fill-rule="evenodd">
        <g id="edit" transform="translate(-526.000000, -115.000000)" fill="#000000">
            <g id="right-column" transform="translate(364.000000, 99.000000)">
                <g id="h1" transform="translate(26.000000, 14.000000)">
                    <path d="M148.75,11 C148.75,11.2578138 148.644532,11.4609368 148.433594,11.609375 L143.183594,15.359375 C142.941405,15.5390634 142.683595,15.5585945 142.410156,15.4179687 C142.136717,15.2851556 142,15.0625016 142,14.75 L142,7.25 C142,6.93749844 142.136717,6.71484441 142.410156,6.58203125 C142.683595,6.44140555 142.941405,6.4609366 143.183594,6.640625 L148.433594,10.390625 C148.644532,10.5390632 148.75,10.7421862 148.75,11 L148.75,11 Z M152.05,4.390625 C152.05,4.26210873 152.008692,4.15654338 151.926074,4.07392578 C151.843457,3.99130818 151.737891,3.95 151.609375,3.95 L138.390625,3.95 C138.262109,3.95 138.156543,3.99130818 138.073926,4.07392578 C137.991308,4.15654338 137.95,4.26210873 137.95,4.390625 L137.95,17.609375 C137.95,17.7378913 137.991308,17.8434566 138.073926,17.9260742 C138.156543,18.0086918 138.262109,18.05 138.390625,18.05 L151.609375,18.05 C151.737891,18.05 151.843457,18.0086918 151.926074,17.9260742 C152.008692,17.8434566 152.05,17.7378913 152.05,17.609375 L152.05,4.390625 Z M154,16.625 C154,17.5546921 153.669925,18.3496061 153.009766,19.0097656 C152.349606,19.6699252 151.554692,20 150.625,20 L139.375,20 C138.445308,20 137.650394,19.6699252 136.990234,19.0097656 C136.330075,18.3496061 136,17.5546921 136,16.625 L136,5.375 C136,4.44530785 136.330075,3.65039393 136.990234,2.99023437 C137.650394,2.33007482 138.445308,2 139.375,2 L150.625,2 C151.554692,2 152.349606,2.33007482 153.009766,2.99023437 C153.669925,3.65039393 154,4.44530785 154,5.375 L154,16.625 Z" id="ico"></path>
                </g>
            </g>
        </g>
    </g>
</svg>
