<?xml version="1.0" encoding="UTF-8" standalone="no"?>
<svg width="15px" height="17px" viewBox="0 0 15 17" version="1.1" xmlns="http://www.w3.org/2000/svg" xmlns:xlink="http://www.w3.org/1999/xlink">
    <g id="Page-1" stroke="none" stroke-width="1" fill="none" fill-rule="evenodd">
        <g id="edit" transform="translate(-390.000000, -116.000000)" fill="#000000">
            <g id="right-column" transform="translate(364.000000, 99.000000)">
                <g id="h1" transform="translate(26.000000, 14.000000)">
                    <path d="M13.9263393,7.515625 C14.0148814,7.60416711 14.1034222,7.71800526 14.1919643,7.85714286 L9.71428571,7.85714286 L9.71428571,3.37946429 C9.85342331,3.4680064 9.96726146,3.55654718 10.0558036,3.64508929 L13.9263393,7.515625 Z M9.41071429,9.07142857 L14.5714286,9.07142857 L14.5714286,19.0892857 C14.5714286,19.3422632 14.4828878,19.5572908 14.3058036,19.734375 C14.1287194,19.9114592 13.9136917,20 13.6607143,20 L0.910714286,20 C0.65773683,20 0.442709219,19.9114592 0.265625,19.734375 C0.0885407813,19.5572908 0,19.3422632 0,19.0892857 L0,3.91071429 C0,3.65773683 0.0885407813,3.44270922 0.265625,3.265625 C0.442709219,3.08854078 0.65773683,3 0.910714286,3 L8.5,3 L8.5,8.16071429 C8.5,8.41369174 8.58854078,8.62871935 8.765625,8.80580357 C8.94270922,8.98288779 9.15773683,9.07142857 9.41071429,9.07142857 L9.41071429,9.07142857 Z M10.9285714,16.0535714 L10.9285714,15.4464286 C10.9285714,15.3578865 10.9001119,15.2851565 10.843192,15.2282366 C10.786272,15.1713167 10.7135421,15.1428571 10.625,15.1428571 L3.94642857,15.1428571 C3.85788646,15.1428571 3.78515653,15.1713167 3.72823661,15.2282366 C3.67131668,15.2851565 3.64285714,15.3578865 3.64285714,15.4464286 L3.64285714,16.0535714 C3.64285714,16.1421135 3.67131668,16.2148435 3.72823661,16.2717634 C3.78515653,16.3286833 3.85788646,16.3571429 3.94642857,16.3571429 L10.625,16.3571429 C10.7135421,16.3571429 10.786272,16.3286833 10.843192,16.2717634 C10.9001119,16.2148435 10.9285714,16.1421135 10.9285714,16.0535714 L10.9285714,16.0535714 Z M10.9285714,13.625 L10.9285714,13.0178571 C10.9285714,12.929315 10.9001119,12.8565851 10.843192,12.7996652 C10.786272,12.7427453 10.7135421,12.7142857 10.625,12.7142857 L3.94642857,12.7142857 C3.85788646,12.7142857 3.78515653,12.7427453 3.72823661,12.7996652 C3.67131668,12.8565851 3.64285714,12.929315 3.64285714,13.0178571 L3.64285714,13.625 C3.64285714,13.7135421 3.67131668,13.786272 3.72823661,13.843192 C3.78515653,13.9001119 3.85788646,13.9285714 3.94642857,13.9285714 L10.625,13.9285714 C10.7135421,13.9285714 10.786272,13.9001119 10.843192,13.843192 C10.9001119,13.786272 10.9285714,13.7135421 10.9285714,13.625 L10.9285714,13.625 Z M10.9285714,11.1964286 L10.9285714,10.5892857 C10.9285714,10.5007436 10.9001119,10.4280137 10.843192,10.3710938 C10.786272,10.3141738 10.7135421,10.2857143 10.625,10.2857143 L3.94642857,10.2857143 C3.85788646,10.2857143 3.78515653,10.3141738 3.72823661,10.3710938 C3.67131668,10.4280137 3.64285714,10.5007436 3.64285714,10.5892857 L3.64285714,11.1964286 C3.64285714,11.2849707 3.67131668,11.3577006 3.72823661,11.4146205 C3.78515653,11.4715405 3.85788646,11.5 3.94642857,11.5 L10.625,11.5 C10.7135421,11.5 10.786272,11.4715405 10.843192,11.4146205 C10.9001119,11.3577006 10.9285714,11.2849707 10.9285714,11.1964286 L10.9285714,11.1964286 Z" id="ico"></path>
                </g>
            </g>
        </g>
    </g>
</svg>
