<svg width="242" height="78" viewBox="0 0 242 78" xmlns="http://www.w3.org/2000/svg">
  <g transform="translate(0.000000, 37.000000)">
    <path d="M5.744,27.722 C6.347,27.781 6.945,27.823 7.542,27.85 C8.136,27.881 8.73,27.894 9.318,27.894 C11.384,27.894 13.012,27.8 14.204,27.615 C15.395,27.428 16.378,27.127 17.155,26.712 C17.441,27.2 17.653,27.669 17.79,28.122 C17.926,28.574 17.995,29.029 17.995,29.488 C17.995,30.176 17.744,30.659 17.241,30.929 C16.737,31.202 15.798,31.338 14.421,31.338 C13.933,31.338 13.006,31.317 11.644,31.275 C10.28,31.23 9.168,31.212 8.306,31.212 C7.087,31.212 5.86,31.24 4.625,31.297 C3.39,31.355 2.766,31.382 2.751,31.382 C2.264,31.382 1.919,31.269 1.719,31.038 C1.516,30.809 1.418,30.407 1.418,29.833 C1.418,29.546 1.453,28.799 1.524,27.595 C1.784,23.044 1.913,18.725 1.913,14.634 C1.913,10.788 1.804,7.837 1.589,5.785 C1.374,3.731 1.021,2.255 0.534,1.348 C1.195,0.99 1.822,0.717 2.417,0.531 C3.013,0.343 3.59,0.252 4.15,0.252 C4.955,0.252 5.502,0.456 5.796,0.865 C6.09,1.274 6.239,2.118 6.239,3.394 C6.239,3.767 6.202,4.757 6.131,6.367 C5.872,12.522 5.744,18.336 5.744,23.805 L5.744,27.722 L5.744,27.722 L5.744,27.722 Z" fill="#0696A6"></path>
    <path d="M26.412,30.326 C25.808,30.657 25.236,30.901 24.69,31.058 C24.144,31.215 23.62,31.293 23.118,31.293 C22.415,31.293 21.938,31.105 21.687,30.723 C21.435,30.343 21.31,29.578 21.31,28.431 C21.31,27.77 21.374,26.292 21.504,23.994 C21.632,21.698 21.698,19.723 21.698,18.074 C21.698,16.28 21.612,14.822 21.439,13.705 C21.268,12.584 20.987,11.63 20.599,10.841 C21.131,10.526 21.676,10.283 22.235,10.119 C22.796,9.954 23.349,9.871 23.894,9.871 C24.554,9.871 25.005,10.032 25.249,10.356 C25.493,10.676 25.615,11.279 25.615,12.153 C25.615,12.382 25.55,13.638 25.421,15.921 C25.292,18.204 25.228,20.369 25.228,22.423 C25.228,24.348 25.324,25.941 25.518,27.202 C25.712,28.469 26.009,29.508 26.412,30.326 L26.412,30.326 Z M26.239,3.307 C26.239,4.125 25.952,4.807 25.379,5.352 C24.804,5.898 24.08,6.171 23.205,6.171 C22.443,6.171 21.84,5.956 21.395,5.525 C20.95,5.093 20.728,4.511 20.728,3.781 C20.728,2.976 21.016,2.293 21.589,1.723 C22.164,1.158 22.86,0.873 23.678,0.873 C24.424,0.873 25.037,1.103 25.518,1.562 C26,2.021 26.239,2.604 26.239,3.307 L26.239,3.307 Z" fill="#0696A6"></path>
    <path d="M33.56,14.028 C33.316,14.028 32.978,14.04 32.547,14.062 C32.116,14.082 31.837,14.092 31.706,14.092 C31.118,14.092 30.706,14.01 30.47,13.844 C30.234,13.68 30.115,13.397 30.115,12.994 C30.115,12.807 30.147,12.588 30.213,12.337 C30.277,12.086 30.381,11.802 30.526,11.486 C30.64,11.486 30.834,11.493 31.107,11.507 C31.378,11.522 31.594,11.529 31.753,11.529 C32.127,11.529 32.724,11.507 33.539,11.463 C33.641,11.463 33.72,11.456 33.777,11.442 C33.777,11.285 33.784,11.046 33.798,10.734 C33.812,10.416 33.819,10.186 33.819,10.044 C33.819,8.924 33.747,7.939 33.603,7.084 C33.458,6.23 33.237,5.48 32.935,4.834 C33.553,4.532 34.106,4.303 34.593,4.146 C35.079,3.988 35.498,3.909 35.842,3.909 C36.43,3.909 36.858,4.091 37.122,4.458 C37.387,4.824 37.519,5.424 37.519,6.256 C37.519,6.615 37.456,7.741 37.326,9.637 C37.284,10.339 37.247,10.9 37.219,11.316 C38.051,11.201 38.802,11.115 39.468,11.056 C40.137,10.999 40.736,10.97 41.267,10.97 C41.743,10.97 42.081,11.056 42.288,11.231 C42.496,11.403 42.601,11.682 42.601,12.071 C42.601,12.286 42.538,12.554 42.408,12.877 C42.279,13.2 42.094,13.565 41.848,13.966 C41.473,13.878 41.078,13.817 40.663,13.772 C40.246,13.727 39.743,13.709 39.156,13.709 C39.053,13.709 38.753,13.719 38.251,13.74 C37.749,13.761 37.318,13.778 36.959,13.794 C36.831,16.034 36.737,17.878 36.68,19.326 C36.623,20.777 36.594,21.96 36.594,22.88 C36.594,24.874 36.771,26.271 37.121,27.068 C37.473,27.864 38.064,28.26 38.896,28.26 C39.125,28.26 39.366,28.218 39.618,28.132 C39.868,28.046 40.124,27.908 40.382,27.723 C40.513,28.009 40.607,28.26 40.663,28.476 C40.72,28.693 40.749,28.885 40.749,29.056 C40.749,29.761 40.457,30.339 39.876,30.79 C39.296,31.242 38.538,31.469 37.605,31.469 C36.055,31.469 34.904,30.955 34.15,29.93 C33.398,28.905 33.021,27.328 33.021,25.203 C33.021,24.599 33.09,23.005 33.235,20.413 C33.38,17.82 33.487,15.693 33.56,14.028 L33.56,14.028 Z" fill="#0696A6"></path>
    <path d="M61.655,26.752 C61.969,27.141 62.204,27.503 62.353,27.839 C62.503,28.177 62.58,28.503 62.58,28.819 C62.58,29.592 62.003,30.228 60.847,30.723 C59.693,31.218 58.181,31.466 56.318,31.466 C52.886,31.466 50.2,30.528 48.255,28.656 C46.31,26.783 45.338,24.197 45.338,20.895 C45.338,17.566 46.317,14.839 48.276,12.722 C50.235,10.607 52.751,9.546 55.823,9.546 C58.19,9.546 60.136,10.223 61.657,11.57 C63.178,12.92 63.939,14.642 63.939,16.736 C63.939,18.386 63.305,19.565 62.043,20.267 C60.781,20.97 58.634,21.322 55.605,21.322 C54.472,21.322 53.341,21.283 52.214,21.205 C51.088,21.126 49.973,21.008 48.867,20.85 L48.867,21.153 C48.867,23.389 49.527,25.165 50.846,26.467 C52.166,27.777 53.959,28.429 56.229,28.429 C57.291,28.429 58.274,28.289 59.178,28.009 C60.084,27.732 60.908,27.313 61.655,26.752 L61.655,26.752 Z M49.126,18.291 C50.073,18.449 51.115,18.568 52.257,18.646 C53.399,18.725 54.629,18.764 55.949,18.764 C57.743,18.764 58.942,18.599 59.545,18.269 C60.149,17.939 60.449,17.342 60.449,16.483 C60.449,15.175 59.997,14.143 59.094,13.381 C58.19,12.62 56.955,12.238 55.39,12.238 C53.725,12.238 52.34,12.77 51.236,13.832 C50.13,14.897 49.427,16.383 49.126,18.291 L49.126,18.291 Z" fill="#0696A6"></path>
    <path d="M72.01,14.353 C73.087,12.845 74.114,11.721 75.089,10.983 C76.067,10.245 77.027,9.875 77.974,9.875 C78.779,9.875 79.464,10.13 80.032,10.639 C80.598,11.152 80.882,11.779 80.882,12.525 C80.882,13.012 80.721,13.491 80.4,13.957 C80.076,14.425 79.591,14.887 78.947,15.347 C78.716,14.714 78.431,14.248 78.094,13.948 C77.757,13.648 77.352,13.496 76.877,13.496 C76.175,13.496 75.435,13.845 74.66,14.54 C73.886,15.236 73.125,16.238 72.378,17.543 C72.306,18.189 72.249,18.847 72.206,19.513 C72.162,20.181 72.142,20.831 72.142,21.462 C72.142,23.615 72.261,25.41 72.496,26.845 C72.733,28.281 73.102,29.457 73.605,30.376 C73.032,30.678 72.467,30.907 71.916,31.065 C71.363,31.221 70.82,31.299 70.29,31.299 C69.586,31.299 69.102,31.123 68.838,30.771 C68.57,30.42 68.44,29.713 68.44,28.653 C68.44,28.263 68.514,26.776 68.666,24.184 C68.817,21.593 68.893,19.186 68.893,16.961 C68.893,15.139 68.823,13.739 68.678,12.764 C68.533,11.786 68.296,10.926 67.966,10.18 C68.253,10.079 68.537,10.004 68.818,9.953 C69.097,9.902 69.388,9.877 69.69,9.877 C70.523,9.877 71.139,10.075 71.542,10.47 C71.945,10.866 72.146,11.47 72.146,12.289 C72.146,12.475 72.135,12.728 72.115,13.053 C72.085,13.372 72.054,13.808 72.01,14.353 L72.01,14.353 Z" fill="#0696A6"></path>
    <path d="M101.248,30.153 C100.687,30.512 100.177,30.785 99.719,30.97 C99.26,31.158 98.861,31.25 98.514,31.25 C97.897,31.25 97.449,31.059 97.167,30.679 C96.888,30.299 96.727,29.686 96.684,28.839 C95.607,29.758 94.539,30.44 93.488,30.884 C92.432,31.328 91.36,31.553 90.267,31.553 C88.117,31.553 86.378,30.949 85.058,29.742 C83.739,28.537 83.078,26.951 83.078,24.984 C83.078,22.76 83.985,20.977 85.802,19.633 C87.617,18.292 90.061,17.621 93.133,17.621 C93.634,17.621 94.169,17.638 94.737,17.674 C95.303,17.709 95.91,17.765 96.555,17.835 C96.584,17.706 96.604,17.574 96.611,17.439 C96.618,17.302 96.621,17.139 96.621,16.955 C96.621,15.461 96.203,14.325 95.361,13.542 C94.522,12.76 93.305,12.369 91.712,12.369 C90.392,12.369 89.306,12.588 88.449,13.025 C87.595,13.463 86.904,14.141 86.374,15.059 C85.857,14.929 85.465,14.706 85.201,14.394 C84.932,14.076 84.802,13.665 84.802,13.165 C84.802,12.117 85.465,11.253 86.794,10.569 C88.12,9.887 89.856,9.547 91.992,9.547 C94.619,9.547 96.59,10.182 97.902,11.453 C99.215,12.723 99.872,14.621 99.872,17.146 C99.872,17.622 99.851,18.446 99.808,19.623 C99.765,20.8 99.745,21.747 99.745,22.465 C99.745,24.445 99.864,26.039 100.099,27.245 C100.334,28.451 100.716,29.423 101.248,30.153 L101.248,30.153 Z M96.511,20.573 C95.851,20.471 95.259,20.396 94.736,20.345 C94.213,20.294 93.763,20.271 93.389,20.271 C91.164,20.271 89.488,20.64 88.352,21.379 C87.217,22.118 86.653,23.221 86.653,24.684 C86.653,25.862 87.048,26.788 87.838,27.46 C88.625,28.137 89.716,28.473 91.109,28.473 C92.156,28.473 93.136,28.277 94.047,27.881 C94.959,27.485 95.795,26.896 96.555,26.106 C96.528,25.387 96.509,24.801 96.501,24.351 C96.494,23.9 96.49,23.465 96.49,23.048 C96.49,22.789 96.497,22.383 96.511,21.83 C96.525,21.28 96.525,20.86 96.511,20.573 L96.511,20.573 Z" fill="#0696A6"></path>
    <path d="M106.307,27.85 C106.826,28.123 107.32,28.326 107.792,28.454 C108.266,28.585 108.726,28.649 109.17,28.649 C110.204,28.649 111.036,28.401 111.667,27.905 C112.299,27.411 112.614,26.76 112.614,25.958 C112.614,25.326 112.443,24.737 112.097,24.191 C111.753,23.645 111.108,22.987 110.159,22.211 C110,22.097 109.784,21.925 109.513,21.695 C107.086,19.683 105.872,17.906 105.872,16.355 C105.872,15.722 105.995,15.092 106.24,14.459 C106.484,13.827 106.844,13.225 107.315,12.65 C108.219,11.574 109.279,10.753 110.491,10.183 C111.704,9.619 113.012,9.333 114.422,9.333 C115.11,9.333 115.633,9.467 115.992,9.73 C116.35,9.998 116.53,10.38 116.53,10.882 C116.53,11.126 116.466,11.416 116.336,11.754 C116.207,12.092 115.992,12.519 115.691,13.034 C115.301,12.876 114.936,12.758 114.59,12.68 C114.246,12.602 113.908,12.562 113.579,12.562 C112.388,12.562 111.422,12.852 110.683,13.434 C109.944,14.014 109.574,14.763 109.574,15.685 C109.574,16.688 110.572,18.043 112.567,19.752 C113.069,20.184 113.449,20.521 113.709,20.764 C114.555,21.51 115.179,22.246 115.581,22.97 C115.982,23.697 116.185,24.438 116.185,25.199 C116.185,26.994 115.392,28.539 113.805,29.839 C112.219,31.139 110.292,31.787 108.026,31.787 C107.236,31.787 106.629,31.629 106.206,31.313 C105.783,31 105.57,30.552 105.57,29.978 C105.57,29.706 105.629,29.404 105.743,29.075 C105.862,28.747 106.048,28.338 106.307,27.85 L106.307,27.85 Z" fill="#BCC831"></path>
    <path d="M136.297,26.752 C136.613,27.141 136.846,27.503 136.997,27.839 C137.149,28.177 137.225,28.503 137.225,28.819 C137.225,29.592 136.647,30.228 135.493,30.723 C134.337,31.218 132.826,31.466 130.961,31.466 C127.529,31.466 124.843,30.528 122.898,28.656 C120.953,26.783 119.981,24.197 119.981,20.895 C119.981,17.566 120.96,14.839 122.919,12.722 C124.878,10.607 127.393,9.546 130.464,9.546 C132.832,9.546 134.777,10.223 136.298,11.57 C137.819,12.92 138.581,14.642 138.581,16.736 C138.581,18.386 137.95,19.565 136.685,20.267 C135.421,20.97 133.276,21.322 130.247,21.322 C129.112,21.322 127.983,21.283 126.854,21.205 C125.729,21.126 124.613,21.008 123.506,20.85 L123.506,21.153 C123.506,23.389 124.166,25.165 125.486,26.467 C126.805,27.777 128.602,28.429 130.869,28.429 C131.932,28.429 132.914,28.289 133.819,28.009 C134.726,27.732 135.551,27.313 136.297,26.752 L136.297,26.752 Z M123.769,18.291 C124.715,18.449 125.76,18.568 126.901,18.646 C128.043,18.725 129.274,18.764 130.592,18.764 C132.387,18.764 133.585,18.599 134.189,18.269 C134.792,17.939 135.093,17.342 135.093,16.483 C135.093,15.175 134.64,14.143 133.737,13.381 C132.833,12.62 131.597,12.238 130.036,12.238 C128.37,12.238 126.983,12.77 125.879,13.832 C124.771,14.897 124.069,16.383 123.769,18.291 L123.769,18.291 Z" fill="#BCC831"></path>
    <path d="M157.956,26.752 C158.272,27.141 158.505,27.503 158.655,27.839 C158.805,28.177 158.883,28.503 158.883,28.819 C158.883,29.592 158.304,30.228 157.151,30.723 C155.996,31.218 154.485,31.466 152.619,31.466 C149.187,31.466 146.501,30.528 144.556,28.656 C142.612,26.783 141.638,24.197 141.638,20.895 C141.638,17.566 142.618,14.839 144.577,12.722 C146.536,10.607 149.052,9.546 152.124,9.546 C154.491,9.546 156.436,10.223 157.957,11.57 C159.478,12.92 160.239,14.642 160.239,16.736 C160.239,18.386 159.607,19.565 158.343,20.267 C157.08,20.97 154.935,21.322 151.905,21.322 C150.771,21.322 149.64,21.283 148.513,21.205 C147.386,21.126 146.271,21.008 145.164,20.85 L145.164,21.153 C145.164,23.389 145.825,25.165 147.144,26.467 C148.464,27.777 150.259,28.429 152.527,28.429 C153.59,28.429 154.574,28.289 155.477,28.009 C156.385,27.732 157.21,27.313 157.956,26.752 L157.956,26.752 Z M145.427,18.291 C146.373,18.449 147.418,18.568 148.56,18.646 C149.701,18.725 150.931,18.764 152.251,18.764 C154.045,18.764 155.244,18.599 155.846,18.269 C156.45,17.939 156.751,17.342 156.751,16.483 C156.751,15.175 156.299,14.143 155.395,13.381 C154.492,12.62 153.255,12.238 151.693,12.238 C150.028,12.238 148.642,12.77 147.539,13.832 C146.43,14.897 145.728,16.383 145.427,18.291 L145.427,18.291 Z" fill="#BCC831"></path>
  </g>
  <g transform="translate(202.000000, 39.000000) scale(-1, 1) translate(-202.000000, -39.000000) translate(161.000000, 0.000000)">
    <path d="M0.915,77.087 C0.915,77.087 17.143,73.227 32.127,72.255 C45.725,71.373 81.022,71.898 81.022,71.898 C81.022,71.898 28.452,74.585 0.915,77.087 L0.915,77.087 Z" fill="#808083"></path>
    <path d="M53.03,48.376 C53.03,48.376 47.136,47.086 42.806,49.895 L39.342,43.554 L49.526,16.545 C49.526,16.545 56.217,24.152 57.269,32.377 C57.27,32.376 59.118,40.645 53.03,48.376 L53.03,48.376 Z" fill="#0696A6"></path>
    <path d="M33.21,59.872 C33.21,59.872 35.016,54.117 39.605,51.751 L35.821,45.598 L7.318,41.033 C7.318,41.033 10.6,50.617 17.217,55.614 C17.217,55.612 23.478,61.32 33.21,59.872 L33.21,59.872 Z" fill="#BCC831"></path>
    <path d="M36.584,38.357 L30.834,28.455 L36.261,8.172 C36.261,8.172 43.064,10.563 47.066,14.274 L36.584,38.357 L36.584,38.357 Z" fill="#0696A6"></path>
    <path d="M32.876,40.468 L27.294,30.471 L7.08,24.792 C7.08,24.792 5.668,31.862 6.816,37.199 L32.876,40.468 L32.876,40.468 Z" fill="#BCC831"></path>
    <path d="M33.313,7.123 L28.026,22.991 L13.842,0.731 L33.313,7.123 Z" fill="#0696A6"></path>
    <path d="M7.716,21.348 L23.981,24.621 L11.813,1.437 L7.716,21.348 Z" fill="#BCC831"></path>
    <path d="M52.287,69.24 L43.47,64.894 C43.47,64.894 41.845,64.046 44.165,62.011 C44.165,62.011 46.436,58.841 51.454,58.47 C51.454,58.47 52.682,58.308 52.63,59.697 L52.632,69.24" fill="#808083"></path>
  </g>
</svg>
