<svg width="128px" height="123px" viewBox="0 -5 128 133" xmlns="http://www.w3.org/2000/svg">
  <g>
    <path d="M128.228,122.629 C128.228,122.629 102.231,116.443 78.225,114.89 C56.442,113.477 -0.104,114.316 -0.104,114.316 C-0.104,114.316 84.113,118.622 128.228,122.629 L128.228,122.629 Z" id="Shape" fill="#808083"></path>
    <path d="M44.741,76.634 C44.741,76.634 54.179,74.568 61.116,79.07 L66.669,68.909 L50.354,25.641 C50.354,25.641 39.633,37.827 37.95,51.004 C37.948,51.003 34.985,64.25 44.741,76.634 L44.741,76.634 Z" id="Shape" fill="#0696A6"></path>
    <path d="M76.49,95.051 C76.49,95.051 73.597,85.83 66.245,82.042 L72.308,72.183 L117.969,64.867 C117.969,64.867 112.712,80.221 102.113,88.226 C102.112,88.226 92.082,97.371 76.49,95.051 L76.49,95.051 Z" id="Shape" fill="#BCC831"></path>
    <path d="M71.086,60.583 L80.299,44.72 L71.603,12.227 C71.603,12.227 60.707,16.059 54.294,22.002 L71.086,60.583 L71.086,60.583 Z" id="Shape" fill="#0696A6"></path>
    <path d="M77.025,63.966 L85.966,47.949 L118.351,38.852 C118.351,38.852 120.613,50.179 118.772,58.727 L77.025,63.966 L77.025,63.966 Z" id="Shape" fill="#BCC831"></path>
    <path d="M76.326,10.547 L84.795,35.969 L107.519,0.308 L76.326,10.547 Z" id="Shape" fill="#0696A6"></path>
    <path d="M117.332,33.334 L91.278,38.578 L110.767,1.438 L117.332,33.334 Z" id="Shape" fill="#BCC831"></path>
    <path d="M45.93,110.059 L60.055,103.101 C60.055,103.101 62.658,101.742 58.941,98.481 C58.941,98.481 55.302,93.402 47.266,92.807 C47.266,92.807 45.297,92.548 45.381,94.772 L45.378,110.059" id="Shape" fill="#808083"></path>
  </g>
</svg>
